<?xml version="1.0" encoding="UTF-8" standalone="no"?>
<!-- Created with Inkscape (http://www.inkscape.org/) -->

<svg
   xmlns:dc="http://purl.org/dc/elements/1.1/"
   xmlns:cc="http://creativecommons.org/ns#"
   xmlns:rdf="http://www.w3.org/1999/02/22-rdf-syntax-ns#"
   xmlns:svg="http://www.w3.org/2000/svg"
   xmlns="http://www.w3.org/2000/svg"
   xmlns:sodipodi="http://sodipodi.sourceforge.net/DTD/sodipodi-0.dtd"
   xmlns:inkscape="http://www.inkscape.org/namespaces/inkscape"
   width="198.98589"
   height="93.176064"
   id="svg2"
   sodipodi:version="0.32"
   inkscape:version="0.48.4 r9939"
   sodipodi:docname="fish4.svg"
   inkscape:output_extension="org.inkscape.output.svg.inkscape"
   sodipodi:modified="true"
   version="1.1">
  <defs
     id="defs4">
    <linearGradient
       id="linearGradient8953">
      <stop
         style="stop-color:#ffffff;stop-opacity:0.55947137;"
         offset="0"
         id="stop8955" />
      <stop
         style="stop-color:#92bbef;stop-opacity:0;"
         offset="1"
         id="stop8957" />
    </linearGradient>
  </defs>
  <sodipodi:namedview
     id="base"
     pagecolor="#ffffff"
     bordercolor="#666666"
     borderopacity="1.0"
     inkscape:pageopacity="0.0"
     inkscape:pageshadow="2"
     inkscape:zoom="1.6650315"
     inkscape:cx="273.82709"
     inkscape:cy="7.3258553"
     inkscape:document-units="px"
     inkscape:current-layer="layer1"
     inkscape:window-width="1920"
     inkscape:window-height="1043"
     inkscape:window-x="0"
     inkscape:window-y="0"
     showgrid="false"
     fit-margin-top="0"
     fit-margin-left="0"
     fit-margin-right="0"
     fit-margin-bottom="0"
     inkscape:window-maximized="1" />
  <metadata
     id="metadata7">
    <rdf:RDF>
      <cc:Work
         rdf:about="">
        <dc:format>image/svg+xml</dc:format>
        <dc:type
           rdf:resource="http://purl.org/dc/dcmitype/StillImage" />
      </cc:Work>
    </rdf:RDF>
  </metadata>
  <g
     inkscape:label="Ebene 1"
     inkscape:groupmode="layer"
     id="layer1"
     transform="translate(-139.10497,-347.05742)">
    <g
       id="g3011"
       transform="matrix(0.65566221,0,0,0.65566221,47.899099,135.54701)">
      <path
         d="m 217.15985,351.95004 c 0,0 43.56983,-29.32659 67.40498,-28.0607 23.84597,1.26592 47.0611,12.42286 47.0611,12.42286 l 6.18951,12.08127 c 0,0 16.78048,7.10811 20.50609,11.74972 3.64989,4.53613 3.55615,4.17947 13.23153,29.51746 0,0 -95.14778,8.97681 -104.43742,-0.27628 -9.29506,-9.25309 -49.95579,-37.43433 -49.95579,-37.43433 z"
         stroke-miterlimit="4"
         id="path12676"
         style="fill:#66cef5;fill-rule:evenodd;stroke:#3a9ddd;stroke-width:2.51797199;stroke-linecap:butt;stroke-linejoin:miter;stroke-miterlimit:4"
         inkscape:connector-curvature="0" />
      <path
         d="m 332.27841,391.84584 c 8.50559,-3.60178 35.62837,-6.12854 47.46483,-11.70452 9.01929,-4.24979 48.6977,-18.90805 60.43684,-11.60403 6.40218,3.98355 -15.54044,38.62989 -23.77569,47.25507 -8.15233,8.5498 -1.65461,34.77695 -3.03887,38.41892 -2.87126,7.52002 -21.86692,10.35823 -26.45588,8.83113 -4.30055,-1.42664 -30.57978,-8.85122 -42.23241,-13.25675 -9.48431,-3.59171 -15.78377,-9.04211 -42.84706,-5.84722 -27.06146,3.18483 30.44824,-52.0926 30.44824,-52.0926 z"
         stroke-miterlimit="4"
         id="path12678"
         style="fill:#66cef5;fill-rule:evenodd;stroke:#33bef2;stroke-width:2.51797199;stroke-linecap:butt;stroke-linejoin:miter;stroke-miterlimit:4"
         inkscape:connector-curvature="0" />
      <path
         d="m 251.1318,450.67481 c 0,0 23.17549,8.8914 38.33741,8.70555 l 15.53502,-2.49664 c 0,0 12.66919,-7.55518 -0.27035,-15.42182"
         stroke-miterlimit="4"
         id="path12680"
         style="fill:#66cef5;fill-rule:evenodd;stroke:#3a9ddd;stroke-width:2.51797199;stroke-linecap:butt;stroke-linejoin:miter;stroke-miterlimit:4"
         inkscape:connector-curvature="0" />
      <path
         d="m 280.59231,446.53552 c -16.99139,6.07832 -69.79138,10.9912 -88.51669,-2.70258 -10.57657,-7.73603 -24.21907,-39.83552 -24.21907,-39.83552 0,0 12.97561,-22.39429 14.33282,-22.89161 0,0 -6.77347,-15.02497 27.34987,-25.52889 21.81285,-6.71125 19.65535,-7.76616 48.61659,-5.1741 18.06201,1.61753 47.2864,15.86389 53.88323,22.24862 11.33901,10.97612 39.47833,19.07885 50.17389,20.13879 10.70273,1.05491 17.55914,0.0401 17.55914,0.0401 0,0 -3.54896,22.08283 -13.78488,34.34996 -10.24134,12.26211 -18.01696,13.48782 -18.01696,13.48782 0,0 -16.69219,0.37173 -32.12449,0.5827 -22.94655,0.31145 -35.25345,5.28461 -35.25345,5.28461 z"
         stroke-miterlimit="4"
         id="path12682"
         style="fill:#f9ac15;fill-rule:evenodd;stroke:#f8a20d;stroke-width:2.51797199;stroke-linecap:butt;stroke-linejoin:miter;stroke-miterlimit:4"
         inkscape:connector-curvature="0" />
      <path
         d="m 163.5614,400.29518 c 0,0 17.0112,-43.42222 58.01618,-46.14993 36.55842,-2.43132 58.16579,24.87083 58.11531,44.60776 -0.0594,24.44886 -19.5472,47.63181 -45.30193,50.21384 -31.20523,3.12958 -46.18332,-5.23437 -47.12958,-8.27855 -0.94087,-3.0492 -30.00484,-29.46221 -23.69998,-40.39312 z"
         stroke-miterlimit="4"
         id="path12684"
         style="fill:#fccc36;fill-rule:evenodd;stroke:#f8a20d;stroke-width:2.72970366;stroke-linecap:butt;stroke-linejoin:miter;stroke-miterlimit:4"
         inkscape:connector-curvature="0" />
      <path
         d="m 194.75222,441.90396 c -3.1308,2.29067 -0.49206,1.31613 -13.26038,2.95878 -9.01389,1.16041 -18.20982,-0.24615 -23.28723,-6.36465 -4.46638,-5.38507 1.5663,-6.25412 10.01784,-6.75647 3.77066,-0.22604 7.73958,0.0552 6.75004,-1.63258 -3.9581,-6.7414 -11.26871,-14.49752 -19.95815,-15.43187 -18.4874,-1.98927 -13.69116,-14.04542 -13.69116,-14.04542 1.08685,-4.30002 13.98675,-5.15903 25.31133,-3.10446 l 29.48574,31.8031"
         stroke-miterlimit="4"
         id="path12686"
         style="fill:#66cef5;fill-rule:evenodd;stroke:#33bef2;stroke-width:3.31697297;stroke-linecap:butt;stroke-linejoin:miter;stroke-miterlimit:4"
         inkscape:connector-curvature="0" />
      <path
         d="m 239.81984,372.03357 c 0.18564,13.15124 -10.96951,23.96159 -24.93824,24.14243 -13.95972,0.17078 -25.41407,-10.35824 -25.5907,-23.51953 -0.18925,-13.1613 10.96589,-23.96662 24.92562,-24.14244 13.96332,-0.17078 25.42128,10.35824 25.60332,23.51954 z"
         stroke-miterlimit="4"
         id="path12688"
         style="fill:#ffffff;fill-rule:nonzero;stroke:#d8691b;stroke-width:2.59313297;stroke-linecap:butt;stroke-linejoin:miter;stroke-miterlimit:4"
         inkscape:connector-curvature="0" />
      <path
         d="m 220.42944,372.12398 c 0.0343,2.63729 -2.20977,4.80236 -4.9945,4.84255 -2.79194,0.025 -5.09002,-2.07466 -5.12788,-4.71193 -0.0378,-2.63226 2.20077,-4.79735 4.99811,-4.83753 2.78833,-0.0302 5.0756,2.07969 5.12427,4.70691 z"
         id="path12690"
         style="fill:#201b1c;fill-rule:nonzero;stroke:none"
         inkscape:connector-curvature="0" />
      <path
         d="m 276.06463,403.54532 c 0,0 35.74734,-1.71297 37.96071,-3.42094 2.20975,-1.71297 4.93681,1.20563 5.41085,3.30541 0.47224,2.09978 -25.98724,24.72514 -32.24884,24.38355 -6.2616,-0.35164 -31.68468,1.33623 -30.83755,-2.03949"
         stroke-miterlimit="4"
         id="path12692"
         style="fill:#66cef5;fill-rule:evenodd;stroke:#33bef2;stroke-width:2.51797199;stroke-linecap:butt;stroke-linejoin:miter;stroke-miterlimit:4"
         inkscape:connector-curvature="0" />
    </g>
  </g>
</svg>
