<?xml version="1.0" encoding="UTF-8" standalone="no"?>
<!-- Generator: Adobe Illustrator 14.0.0, SVG Export Plug-In . SVG Version: 6.00 Build 43363)  -->

<svg
   xmlns:dc="http://purl.org/dc/elements/1.1/"
   xmlns:cc="http://creativecommons.org/ns#"
   xmlns:rdf="http://www.w3.org/1999/02/22-rdf-syntax-ns#"
   xmlns:svg="http://www.w3.org/2000/svg"
   xmlns="http://www.w3.org/2000/svg"
   xmlns:sodipodi="http://sodipodi.sourceforge.net/DTD/sodipodi-0.dtd"
   xmlns:inkscape="http://www.inkscape.org/namespaces/inkscape"
   version="1.1"
   id="Layer_1"
   x="0px"
   y="0px"
   width="188.5574"
   height="106.34904"
   viewBox="0 0 188.5574 106.34904"
   enable-background="new 0 0 640 480"
   xml:space="preserve"
   inkscape:version="0.48.4 r9939"
   sodipodi:docname="fish.svg"><metadata
     id="metadata96"><rdf:RDF><cc:Work
         rdf:about=""><dc:format>image/svg+xml</dc:format><dc:type
           rdf:resource="http://purl.org/dc/dcmitype/StillImage" /></cc:Work></rdf:RDF></metadata><defs
     id="defs94" /><sodipodi:namedview
     pagecolor="#ffffff"
     bordercolor="#666666"
     borderopacity="1"
     objecttolerance="10"
     gridtolerance="10"
     guidetolerance="10"
     inkscape:pageopacity="0"
     inkscape:pageshadow="2"
     inkscape:window-width="640"
     inkscape:window-height="480"
     id="namedview92"
     showgrid="false"
     fit-margin-top="0"
     fit-margin-left="0"
     fit-margin-right="0"
     fit-margin-bottom="0"
     inkscape:zoom="0.70247955"
     inkscape:cx="320"
     inkscape:cy="-16.027498"
     inkscape:window-x="0"
     inkscape:window-y="0"
     inkscape:window-maximized="0"
     inkscape:current-layer="Layer_1" /><g
     id="g3"
     transform="matrix(3.1716972,0,0,3.1716972,0,-4.6847465e-6)"><g
       id="XMLID_1_"><path
         d="m 59.42,5.83 c 0,-0.25 0,-0.51 0,-0.77 0.02,0.1 0.03,0.24 0.03,0.38 0,0.15 -0.01,0.29 -0.03,0.39 z"
         id="path6"
         inkscape:connector-curvature="0"
         style="fill:#7d4e34" /><path
         d="m 59.3,25.75 c 0.06,0.05 0.01,0.2 0.03,0.29 -0.06,-0.05 -0.01,-0.2 -0.03,-0.29 z"
         id="path8"
         inkscape:connector-curvature="0"
         style="fill:#7d4e34" /><path
         d="m 59.33,26.59 c -0.01,0.05 0,0.13 0,0.19 0,0.04 -0.01,0.08 -0.03,0.1 0.02,-0.09 -0.03,-0.24 0.03,-0.29 z"
         id="path10"
         inkscape:connector-curvature="0"
         style="fill:#7d4e34" /><path
         d="m 58.58,26.06 c 0.04,0.03 0.04,0.22 0,0.24 0,-0.08 0,-0.16 0,-0.24 z"
         id="path12"
         inkscape:connector-curvature="0"
         style="fill:#7d4e34" /><path
         d="m 56.81,32.33 c 0.13,-0.16 0.28,-0.3 0.43,-0.43 -0.13,0.15 -0.28,0.29 -0.43,0.43 z"
         id="path14"
         inkscape:connector-curvature="0"
         style="fill:#3e281c" /><path
         d="m 56.5,31.7 c 0.09,-0.11 0.19,-0.21 0.31,-0.31 -0.1,0.12 -0.2,0.22 -0.31,0.31 z"
         id="path16"
         inkscape:connector-curvature="0"
         style="fill:#3e281c" /><path
         d="m 55.2,18.22 c 0.11,0.09 0.22,0.19 0.31,0.31 -0.11,-0.1 -0.22,-0.2 -0.31,-0.31 z"
         id="path18"
         inkscape:connector-curvature="0"
         style="fill:#3e281c" /><path
         d="m 54.91,0 c 0,0.01 0,0.02 0,0.02 C 54.84,0.01 54.72,0.05 54.68,0 c 0.08,0 0.15,0 0.23,0 z"
         id="path20"
         inkscape:connector-curvature="0"
         style="fill:#7d4e34" /><path
         d="M 53.88,0.72 C 53.91,0.67 54.05,0.71 54.12,0.7 54.09,0.75 53.95,0.71 53.88,0.72 z"
         id="path22"
         inkscape:connector-curvature="0"
         style="fill:#7d4e34" /><path
         d="m 54.07,0 c -0.03,0.05 -0.17,0.01 -0.24,0.02 0,0 0,-0.01 0,-0.02 0.08,0 0.16,0 0.24,0 z"
         id="path24"
         inkscape:connector-curvature="0"
         style="fill:#7d4e34" /><path
         d="m 46.78,28.58 c -0.1,-0.05 -0.15,-0.15 -0.24,-0.21 0,-0.01 0,-0.02 0,-0.03 0.09,0.07 0.17,0.15 0.24,0.24 z"
         id="path26"
         inkscape:connector-curvature="0"
         style="fill:#b94200" /><path
         d="m 46.54,28.34 c 0,0.01 0,0.02 0,0.03 -0.4,-0.38 -0.78,-0.76 -1.16,-1.15 0.01,0 0.02,0 0.03,0 0.36,0.38 0.74,0.76 1.13,1.12 z"
         id="path28"
         inkscape:connector-curvature="0"
         style="fill:#3e281c" /><path
         d="m 45.41,27.22 c -0.01,0 -0.02,0 -0.03,0 -0.03,-0.06 -0.07,-0.1 -0.12,-0.14 0.05,0.03 0.1,0.08 0.15,0.14 z"
         id="path30"
         inkscape:connector-curvature="0"
         style="fill:#b94200" /><path
         d="m 44.64,5.52 c 0.14,-0.15 0.28,-0.3 0.43,-0.42 -0.14,0.14 -0.28,0.28 -0.41,0.42 0,0 -0.01,0 -0.02,0 z"
         id="path32"
         inkscape:connector-curvature="0"
         style="fill:#3e281c" /><path
         d="m 44.66,5.52 c -0.07,0.09 -0.15,0.17 -0.24,0.24 0.06,-0.09 0.16,-0.15 0.22,-0.24 0.01,0 0.02,0 0.02,0 z"
         id="path34"
         inkscape:connector-curvature="0"
         style="fill:#b94200" /><path
         d="m 44.93,4.25 c -0.3,0.31 -0.6,0.62 -0.91,0.91 0.29,-0.31 0.59,-0.62 0.91,-0.91 z"
         id="path36"
         inkscape:connector-curvature="0"
         style="fill:#3e281c" /><path
         d="m 36.84,26.11 c 0.25,-0.27 0.52,-0.54 0.79,-0.79 -0.25,0.27 -0.52,0.54 -0.79,0.79 z"
         id="path38"
         inkscape:connector-curvature="0"
         style="fill:#3e281c" /><path
         d="m 37.13,24.77 c -0.26,0.28 -0.54,0.55 -0.82,0.81 0.26,-0.28 0.54,-0.55 0.82,-0.81 z"
         id="path40"
         inkscape:connector-curvature="0"
         style="fill:#b94200" /><path
         d="m 36.41,5.52 c 0.15,0.13 0.3,0.28 0.43,0.43 -0.16,-0.12 -0.27,-0.28 -0.43,-0.41 0,0 0,-0.01 0,-0.02 z"
         id="path42"
         inkscape:connector-curvature="0"
         style="fill:#3e281c" /><path
         d="m 36.41,5.52 c 0,0.01 0,0.02 0,0.02 -0.09,-0.07 -0.17,-0.15 -0.24,-0.24 0.09,0.06 0.14,0.16 0.24,0.22 z"
         id="path44"
         inkscape:connector-curvature="0"
         style="fill:#b94200" /><path
         d="m 25.54,0 c 0,0.01 0,0.02 0,0.02 C 25.45,0.01 25.31,0.06 25.26,0 c 0.09,0 0.18,0 0.28,0 z"
         id="path46"
         inkscape:connector-curvature="0"
         style="fill:#7d4e34" /><path
         d="M 25.23,0.74 C 25.32,0.76 25.46,0.71 25.51,0.77 25.42,0.75 25.29,0.8 25.23,0.74 z"
         id="path48"
         inkscape:connector-curvature="0"
         style="fill:#7d4e34" /><path
         d="m 25.18,31.08 c 0.04,-0.06 0.18,-0.01 0.26,-0.02 -0.04,0.05 -0.18,0 -0.26,0.02 z"
         id="path50"
         inkscape:connector-curvature="0"
         style="fill:#7d4e34" /><path
         d="m 24.86,30.38 c 0.09,-0.05 0.28,0 0.41,-0.02 -0.09,0.06 -0.28,0.01 -0.41,0.02 z"
         id="path52"
         inkscape:connector-curvature="0"
         style="fill:#7d4e34" /><path
         d="m 24.6,31.08 c -0.03,0.02 -0.1,0.03 -0.17,0.03 -0.07,0 -0.14,-0.01 -0.17,-0.03 0.12,0 0.23,0 0.34,0 z"
         id="path54"
         inkscape:connector-curvature="0"
         style="fill:#7d4e34" /><path
         d="m 24.29,0.74 c 0.07,-0.04 0.31,-0.04 0.38,0 -0.13,0 -0.25,0 -0.38,0 z"
         id="path56"
         inkscape:connector-curvature="0"
         style="fill:#7d4e34" /><path
         d="m 23.64,30.36 c 0.13,0.02 0.32,-0.03 0.41,0.02 -0.13,-0.01 -0.32,0.04 -0.41,-0.02 z"
         id="path58"
         inkscape:connector-curvature="0"
         style="fill:#7d4e34" /><path
         d="m 23.42,0.77 c 0.05,-0.06 0.2,-0.01 0.29,-0.03 -0.05,0.06 -0.2,0.01 -0.29,0.03 z"
         id="path60"
         inkscape:connector-curvature="0"
         style="fill:#7d4e34" /><path
         d="m 23.78,0 c -0.05,0.06 -0.21,0.01 -0.31,0.02 0,0 0,-0.01 0,-0.02 0.11,0 0.21,0 0.31,0 z"
         id="path62"
         inkscape:connector-curvature="0"
         style="fill:#7d4e34" /><path
         d="m 23.4,31.06 c 0.09,0.01 0.24,-0.04 0.29,0.02 -0.09,-0.02 -0.24,0.03 -0.29,-0.02 z"
         id="path64"
         inkscape:connector-curvature="0"
         style="fill:#7d4e34" /><path
         d="m 13.15,20.35 c 0.1,-0.11 0.2,-0.22 0.31,-0.31 -0.09,0.11 -0.19,0.22 -0.31,0.31 z"
         id="path66"
         inkscape:connector-curvature="0"
         style="fill:#b94200" /><path
         d="m 9.26,14.28 c 0.04,0.08 0.04,0.33 0,0.41 0,-0.14 0,-0.27 0,-0.41 z"
         id="path68"
         inkscape:connector-curvature="0"
         style="fill:#7d4e34" /><path
         d="m 10.61,14.33 c 0.2,0.87 -1.14,1.23 -1.8,1.44 -0.03,-0.09 0.14,-0.2 0.21,-0.31 0.13,-0.21 0.22,-0.49 0.24,-0.77 0.04,-0.08 0.04,-0.33 0,-0.41 C 9.24,13.93 9.1,13.63 8.93,13.39 8.88,13.33 8.76,13.27 8.81,13.2 c 0.67,0.27 1.64,0.41 1.8,1.13 z"
         id="path70"
         inkscape:connector-curvature="0"
         style="fill:#f75800" /><path
         d="M 8.81,22.84 C 8.87,22.81 8.96,22.83 9.02,22.82 8.99,22.87 8.89,22.84 8.81,22.84 z"
         id="path72"
         inkscape:connector-curvature="0"
         style="fill:#7d4e34" /><path
         d="m 7.96,22.83 c 0.06,0 0.12,-0.02 0.17,0.01 -0.06,0 -0.13,0.02 -0.17,-0.01 z"
         id="path74"
         inkscape:connector-curvature="0"
         style="fill:#7d4e34" /><path
         d="m 7.54,12.34 c 0.07,0.01 0.2,-0.03 0.24,0.02 C 7.7,12.34 7.57,12.39 7.54,12.34 z"
         id="path76"
         inkscape:connector-curvature="0"
         style="fill:#7d4e34" /><path
         d="m 5.57,14.28 c 0,0.14 0,0.27 0,0.41 -0.04,-0.08 -0.04,-0.33 0,-0.41 z"
         id="path78"
         inkscape:connector-curvature="0"
         style="fill:#7d4e34" /><path
         d="M 6.07,15.82 C 5.36,15.57 3.97,15.33 4.08,14.38 4.16,13.66 5.35,13.35 6.07,13.18 6.12,13.17 6,13.31 5.95,13.37 c -0.17,0.21 -0.38,0.52 -0.38,0.91 -0.04,0.08 -0.04,0.33 0,0.41 0.02,0.4 0.2,0.71 0.41,0.96 0.03,0.05 0.14,0.11 0.09,0.17 z"
         id="path80"
         inkscape:connector-curvature="0"
         style="fill:#f75800" /><path
         d="m 5.23,24.1 c 0.15,0.12 0.28,0.26 0.41,0.4 C 5.49,24.38 5.36,24.24 5.23,24.1 z"
         id="path82"
         inkscape:connector-curvature="0"
         style="fill:#3e281c" /><path
         d="M 5.28,7.87 C 5.15,8.03 5,8.17 4.85,8.3 4.98,8.15 5.13,8.01 5.28,7.87 z"
         id="path84"
         inkscape:connector-curvature="0"
         style="fill:#b94200" /><path
         d="m 8.81,15.77 c 0.66,-0.21 2,-0.57 1.8,-1.44 -0.16,-0.72 -1.13,-0.86 -1.8,-1.13 -0.05,0.07 0.07,0.13 0.12,0.19 0.17,0.24 0.31,0.54 0.33,0.89 0,0.14 0,0.27 0,0.41 -0.02,0.28 -0.11,0.56 -0.24,0.77 -0.07,0.11 -0.24,0.22 -0.21,0.31 z M 3.48,13.94 c 0.53,-1.27 2.21,-1.55 4.06,-1.6 0.03,0.05 0.16,0 0.24,0.02 1.43,0.1 3.01,0.47 3.45,1.56 0.24,0.57 0.04,1.22 -0.31,1.61 -1.14,1.24 -4.51,1.44 -6.24,0.6 -0.73,-0.36 -1.65,-1.1 -1.2,-2.19 z m 0.6,0.44 C 3.97,15.33 5.36,15.57 6.07,15.82 6.12,15.76 6.01,15.7 5.98,15.65 5.77,15.4 5.59,15.09 5.57,14.69 c 0,-0.14 0,-0.27 0,-0.41 0,-0.39 0.21,-0.7 0.38,-0.91 0.05,-0.06 0.17,-0.2 0.12,-0.19 -0.72,0.17 -1.91,0.48 -1.99,1.2 z"
         id="path86"
         inkscape:connector-curvature="0" /><path
         d="M 0.72,15.58 C 1.51,12.57 2.98,10.24 4.85,8.3 5,8.17 5.15,8.03 5.28,7.87 5.35,7.78 5.43,7.7 5.52,7.63 9.89,3.74 15.73,1.33 23.42,0.77 c 0.09,-0.02 0.24,0.03 0.29,-0.03 0.19,0 0.39,0 0.58,0 0.13,0 0.25,0 0.38,0 0.19,0 0.37,0 0.55,0 h 0.01 c 0.06,0.06 0.19,0.01 0.28,0.03 4.82,0.25 8.02,2.1 10.66,4.53 0.07,0.09 0.15,0.17 0.24,0.24 0.16,0.13 0.27,0.29 0.43,0.41 0,0.01 0,0.02 0,0.03 0.09,0.07 0.17,0.15 0.24,0.24 0.88,0.94 1.68,1.95 2.45,3.09 0.15,0.23 0.47,1.01 0.79,1.03 0.26,0.02 0.44,-0.29 0.6,-0.5 1.1,-1.4 2.31,-2.79 3.5,-4.08 0.09,-0.07 0.17,-0.15 0.24,-0.24 0.13,-0.14 0.27,-0.28 0.41,-0.42 0.13,-0.16 0.27,-0.29 0.41,-0.42 2.08,-2.04 4.68,-3.56 8.4,-3.96 0.07,-0.01 0.21,0.03 0.24,-0.02 1.65,-0.03 2.9,0.47 3.62,1.41 0.72,0.94 1.12,2.37 0.96,3.99 -0.27,2.88 -1.9,5.01 -3.33,6.64 -0.12,0.14 -0.25,0.27 -0.39,0.39 -0.85,0.82 -1.83,1.52 -3.07,2.04 -0.3,0.12 -1.11,0.26 -1.05,0.69 0.04,0.36 0.81,0.4 1.17,0.51 1.29,0.37 2.38,1.09 3.17,1.85 0.09,0.11 0.2,0.21 0.31,0.31 1.65,1.88 2.95,4.12 3.07,7.53 0,0.08 0,0.16 0,0.24 -0.04,2.25 -0.7,3.88 -1.77,5.09 -0.12,0.1 -0.22,0.2 -0.31,0.31 -0.75,0.57 -1.44,1.21 -2.67,1.13 C 52.8,32.77 51.79,32.3 51.02,31.87 49.42,30.97 48.03,29.75 46.78,28.58 46.71,28.49 46.63,28.41 46.54,28.34 46.15,27.98 45.77,27.6 45.41,27.22 45.36,27.16 45.31,27.11 45.26,27.08 45.22,27.04 45.18,27 45.14,26.95 43.62,25.34 42.18,23.6 40.8,21.77 c -0.17,-0.23 -0.42,-0.66 -0.7,-0.65 -0.31,0.01 -0.6,0.64 -0.76,0.89 -0.68,1.01 -1.41,1.91 -2.21,2.76 -0.28,0.26 -0.56,0.53 -0.82,0.81 -2.76,2.52 -6.01,4.53 -11.04,4.78 -0.13,0.02 -0.32,-0.03 -0.41,0.02 -0.27,0 -0.54,0 -0.81,0 -0.09,-0.05 -0.28,0 -0.41,-0.02 -3.8,-0.24 -7.17,-1 -10.13,-2.11 C 10.56,27.13 7.93,25.68 5.83,23.69 5.74,23.62 5.66,23.54 5.59,23.45 5.25,23.02 4.8,22.58 4.56,22.13 c 1.01,0.34 2.06,0.64 3.36,0.69 0.01,0.01 0.02,0.02 0.04,0.01 0.04,0.03 0.11,0.01 0.17,0.01 0.02,0 0.03,0.01 0.05,0.01 0.2,0 0.39,0 0.58,0 0.02,0 0.03,-0.01 0.05,-0.01 0.08,0 0.18,0.03 0.21,-0.02 3.23,-0.19 5.14,-2.01 6.41,-4.32 0.11,-0.19 0.49,-0.9 -0.09,-0.93 -0.3,-0.02 -0.41,0.35 -0.53,0.57 -0.4,0.72 -0.82,1.35 -1.35,1.9 -0.11,0.09 -0.21,0.2 -0.31,0.31 -0.95,0.93 -2.42,1.68 -4.27,1.78 C 7.99,22.18 7.03,22.05 6.14,21.84 5.3,21.64 4.29,21.39 3.79,20.98 3.44,20.69 3.23,20.14 2.95,19.68 2.15,18.35 1.4,16.99 0.72,15.58 z m 2.76,-1.64 c -0.45,1.09 0.47,1.83 1.2,2.19 1.73,0.84 5.1,0.64 6.24,-0.6 0.35,-0.39 0.55,-1.04 0.31,-1.61 C 10.79,12.83 9.21,12.46 7.78,12.36 7.74,12.31 7.61,12.35 7.54,12.34 5.69,12.39 4.01,12.67 3.48,13.94 z"
         id="path88"
         inkscape:connector-curvature="0"
         style="fill:#f75800" /><path
         d="M 5.23,24.1 C 3.08,21.7 1.49,18.75 0,15.7 0,15.6 0,15.5 0,15.41 0.85,12.32 2.32,9.86 4.25,7.85 4.46,7.66 4.66,7.46 4.85,7.25 9.33,3.11 15.46,0.63 23.47,0.02 23.57,0.01 23.73,0.06 23.78,0 c 0.49,0 0.98,0 1.47,0 0,0 0,0 0.01,0 0.05,0.06 0.19,0.01 0.28,0.02 7.51,0.52 11.62,4.51 14.83,9.32 1.2,-1.41 2.35,-2.87 3.65,-4.18 0.31,-0.29 0.61,-0.6 0.91,-0.91 2.19,-2.18 4.92,-3.83 8.9,-4.23 0.07,-0.01 0.21,0.03 0.24,-0.02 0.2,0 0.4,0 0.6,0 h 0.01 c 0.04,0.05 0.16,0.01 0.23,0.02 2.97,0.22 4.25,2.12 4.51,5.04 0,0.26 0,0.52 0,0.77 -0.2,2.53 -1.19,4.45 -2.4,6.03 -1.2,1.57 -2.67,2.97 -4.56,3.86 2.06,0.73 3.58,2.08 4.71,3.74 1.12,1.66 1.96,3.73 2.13,6.29 0.02,0.09 -0.03,0.24 0.03,0.29 0,0.18 0,0.37 0,0.55 -0.06,0.05 -0.01,0.2 -0.03,0.29 -0.13,2.22 -0.92,3.79 -2.06,5.02 -0.15,0.13 -0.3,0.27 -0.43,0.43 -0.74,0.65 -1.54,1.17 -2.76,1.2 -1.17,0.02 -2.25,-0.43 -3.07,-0.87 -1.71,-0.91 -3.21,-2.13 -4.52,-3.36 -0.09,-0.07 -0.17,-0.15 -0.24,-0.24 -0.34,-0.32 -0.68,-0.66 -1,-1 -0.1,-0.08 -0.19,-0.17 -0.27,-0.27 -1.69,-1.81 -3.32,-3.67 -4.8,-5.69 -0.77,1.15 -1.59,2.24 -2.52,3.22 -0.27,0.25 -0.54,0.52 -0.79,0.79 -2.83,2.62 -6.22,4.67 -11.4,4.95 -0.08,0.01 -0.22,-0.04 -0.26,0.02 -0.2,0 -0.39,0 -0.58,0 -0.11,0 -0.22,0 -0.34,0 -0.19,0 -0.38,0 -0.57,0 C 23.64,31.02 23.49,31.07 23.4,31.06 15.85,30.51 10.03,28.22 5.64,24.5 5.51,24.36 5.38,24.22 5.23,24.1 z M 3.79,20.98 c 0.5,0.41 1.51,0.66 2.35,0.86 0.89,0.21 1.85,0.34 2.74,0.29 1.85,-0.1 3.32,-0.85 4.27,-1.78 0.12,-0.09 0.22,-0.2 0.31,-0.31 0.53,-0.55 0.95,-1.18 1.35,-1.9 0.12,-0.22 0.23,-0.59 0.53,-0.57 0.58,0.03 0.2,0.74 0.09,0.93 -1.27,2.31 -3.18,4.13 -6.41,4.32 -0.06,0.01 -0.15,-0.01 -0.21,0.02 -0.02,0 -0.03,0.01 -0.05,0.01 -0.19,0 -0.38,0 -0.58,0 -0.02,0 -0.03,-0.01 -0.05,-0.01 -0.05,-0.03 -0.11,-0.01 -0.17,-0.01 -0.02,0.01 -0.03,0 -0.04,-0.01 -1.3,-0.05 -2.35,-0.35 -3.36,-0.69 0.24,0.45 0.69,0.89 1.03,1.32 0.07,0.09 0.15,0.17 0.24,0.24 2.1,1.99 4.73,3.44 7.68,4.56 2.96,1.11 6.33,1.87 10.13,2.11 0.09,0.06 0.28,0.01 0.41,0.02 0.27,0 0.54,0 0.81,0 0.13,-0.01 0.32,0.04 0.41,-0.02 5.03,-0.25 8.28,-2.26 11.04,-4.78 0.28,-0.26 0.56,-0.53 0.82,-0.81 0.8,-0.85 1.53,-1.75 2.21,-2.76 0.16,-0.25 0.45,-0.88 0.76,-0.89 0.28,-0.01 0.53,0.42 0.7,0.65 1.38,1.83 2.82,3.57 4.34,5.18 0.04,0.05 0.08,0.09 0.12,0.13 0.05,0.04 0.09,0.08 0.12,0.14 0.38,0.39 0.76,0.77 1.16,1.15 0.09,0.06 0.14,0.16 0.24,0.21 1.25,1.17 2.64,2.39 4.24,3.29 0.77,0.43 1.78,0.9 2.81,0.96 1.23,0.08 1.92,-0.56 2.67,-1.13 0.11,-0.09 0.21,-0.19 0.31,-0.31 1.07,-1.21 1.73,-2.84 1.77,-5.09 0.04,-0.02 0.04,-0.21 0,-0.24 -0.12,-3.41 -1.42,-5.65 -3.07,-7.53 -0.09,-0.12 -0.2,-0.22 -0.31,-0.31 -0.79,-0.76 -1.88,-1.48 -3.17,-1.85 -0.36,-0.11 -1.13,-0.15 -1.17,-0.51 -0.06,-0.43 0.75,-0.57 1.05,-0.69 1.24,-0.52 2.22,-1.22 3.07,-2.04 0.14,-0.12 0.27,-0.25 0.39,-0.39 C 56.8,11.11 58.43,8.98 58.7,6.1 58.86,4.48 58.46,3.05 57.74,2.11 57.02,1.17 55.77,0.67 54.12,0.7 54.05,0.71 53.91,0.67 53.88,0.72 c -3.72,0.4 -6.32,1.92 -8.4,3.96 -0.14,0.13 -0.28,0.26 -0.41,0.42 -0.15,0.12 -0.29,0.27 -0.43,0.42 -0.06,0.09 -0.16,0.15 -0.22,0.24 -1.19,1.29 -2.4,2.68 -3.5,4.08 -0.16,0.21 -0.34,0.52 -0.6,0.5 C 40,10.32 39.68,9.54 39.53,9.31 38.76,8.17 37.96,7.16 37.08,6.22 37.01,6.13 36.93,6.05 36.84,5.98 c 0,-0.01 0,-0.02 0,-0.03 C 36.71,5.8 36.56,5.65 36.41,5.52 36.31,5.46 36.26,5.36 36.17,5.3 33.53,2.87 30.33,1.02 25.51,0.77 25.46,0.71 25.32,0.76 25.23,0.74 h -0.01 c -0.18,0 -0.36,0 -0.55,0 -0.07,-0.04 -0.31,-0.04 -0.38,0 -0.19,0 -0.39,0 -0.58,0 C 23.62,0.76 23.47,0.71 23.42,0.77 15.73,1.33 9.89,3.74 5.52,7.63 5.43,7.7 5.35,7.78 5.28,7.87 5.13,8.01 4.98,8.15 4.85,8.3 c -1.87,1.94 -3.34,4.27 -4.13,7.28 0.68,1.41 1.43,2.77 2.23,4.1 0.28,0.46 0.49,1.01 0.84,1.3 z"
         id="path90"
         inkscape:connector-curvature="0" /></g></g></svg>